<?xml version="1.0" standalone="no"?>
<!DOCTYPE svg PUBLIC "-//W3C//DTD SVG 20010904//EN"
 "http://www.w3.org/TR/2001/REC-SVG-20010904/DTD/svg10.dtd">
<svg version="1.0" xmlns="http://www.w3.org/2000/svg"
 width="3000.000000pt" height="2000.000000pt" viewBox="0 0 3000.000000 2000.000000"
 preserveAspectRatio="xMidYMid meet">

<g transform="translate(0.000000,2000.000000) scale(0.100000,-0.100000)"
fill="#000000" stroke="none">
<path d="M0 10000 l0 -10000 15000 0 15000 0 0 10000 0 10000 -15000 0 -15000
0 0 -10000z m19930 7230 l0 -90 75 0 75 0 0 90 0 90 90 0 90 0 0 -260 0 -261
-87 3 -88 3 -3 93 -3 92 -74 0 -74 0 -3 -92 -3 -93 -87 -3 -88 -3 0 261 0 260
90 0 90 0 0 -90z m850 20 l0 -70 -75 0 -75 0 0 -190 0 -190 -90 0 -90 0 0 190
0 190 -75 0 -75 0 0 70 0 70 240 0 240 0 0 -70z m261 -47 c39 -65 77 -126 84
-136 11 -16 22 -2 91 117 l79 135 73 1 72 0 0 -260 0 -261 -77 3 -78 3 -5 110
-5 110 -50 -87 c-50 -88 -50 -88 -90 -88 -39 0 -41 1 -95 88 l-55 87 -3 -113
-3 -113 -77 3 -77 3 -3 258 -2 257 74 0 74 0 73 -117z m659 -73 l0 -190 120 0
121 0 -3 -67 -3 -68 -202 -3 -203 -2 0 260 0 260 85 0 85 0 0 -190z m-8524
-105 c28 -8 68 -31 90 -50 l39 -35 -54 -50 -54 -49 -32 25 c-98 75 -216 8
-202 -114 11 -99 118 -142 199 -80 l35 27 54 -48 54 -49 -23 -24 c-12 -14 -44
-35 -70 -49 -64 -33 -204 -35 -272 -3 -98 46 -153 134 -152 245 0 123 62 211
174 250 65 22 148 24 214 4z m497 1 c81 -19 84 -24 57 -96 -18 -48 -26 -60
-39 -54 -77 32 -184 37 -195 9 -8 -21 13 -32 89 -50 130 -30 176 -63 190 -138
15 -78 -50 -163 -140 -186 -84 -21 -205 -11 -287 25 l-36 16 26 62 c14 33 27
62 28 64 1 2 15 -3 31 -11 41 -22 139 -39 173 -32 20 4 30 13 30 25 0 21 -8
25 -96 45 -127 29 -184 78 -184 159 0 45 33 109 69 133 65 42 178 54 284 29z
m507 -5 c62 -20 63 -21 36 -87 -15 -36 -30 -58 -38 -56 -7 2 -39 10 -71 19
-63 16 -115 10 -124 -14 -8 -20 10 -30 91 -48 133 -31 177 -66 184 -150 4 -47
1 -61 -21 -94 -42 -63 -101 -86 -222 -86 -97 0 -195 21 -210 46 -4 5 6 36 21
68 l26 60 52 -20 c58 -24 159 -30 177 -12 20 20 -6 40 -64 53 -136 28 -188 61
-207 128 -22 80 28 160 120 193 60 21 182 21 250 0z m-3435 -350 c45 -20 91
-69 112 -118 30 -73 7 -181 -52 -240 -57 -59 -170 -73 -252 -32 -161 80 -147
334 23 394 54 20 122 18 169 -4z m-6106 -122 c24 -72 44 -129 46 -127 1 1 22
60 45 131 l42 127 44 0 43 0 41 -130 c23 -71 43 -130 45 -130 2 0 23 59 47
130 l42 130 43 0 c28 0 43 -4 43 -12 0 -7 -28 -98 -62 -201 l-62 -188 -50 3
-49 3 -42 125 -42 125 -42 -128 -43 -128 -51 3 -50 3 -57 171 c-82 245 -80
224 -22 224 l49 0 42 -131z m829 89 l3 -38 -106 0 -106 0 3 -37 3 -38 88 -3
87 -3 0 -39 0 -40 -90 0 -90 0 0 -40 0 -40 105 0 105 0 0 -40 0 -40 -150 0
-150 0 0 200 0 201 148 -3 147 -3 3 -37z m359 19 c18 -10 37 -26 43 -36 16
-32 12 -86 -10 -114 -20 -25 -20 -26 -2 -31 42 -14 56 -106 22 -148 -27 -35
-88 -48 -224 -48 l-116 0 0 201 0 201 128 -4 c94 -3 135 -9 159 -21z m590 -11
c153 -83 122 -315 -47 -354 -28 -7 -96 -12 -151 -12 l-99 0 0 201 0 202 123
-5 c111 -4 129 -8 174 -32z m461 -8 l3 -38 -105 0 -106 0 0 -40 0 -40 90 0 90
0 0 -40 0 -40 -90 0 -90 0 0 -40 0 -40 105 0 105 0 0 -40 0 -40 -150 0 -150 0
0 200 0 201 148 -3 147 -3 3 -37z m136 -10 c13 -29 38 -88 56 -130 19 -43 36
-78 39 -78 4 0 31 57 61 128 l55 127 39 3 c43 4 65 -10 49 -30 -5 -7 -17 -32
-26 -55 -9 -23 -25 -61 -36 -85 -11 -24 -37 -83 -59 -133 l-38 -90 -47 -3
c-41 -3 -48 0 -56 20 -5 13 -43 100 -84 193 -41 94 -72 173 -70 178 2 4 24 7
49 7 45 0 45 0 68 -52z m634 10 l3 -38 -105 0 -106 0 0 -40 0 -40 90 0 90 0 0
-40 0 -40 -90 0 -90 0 0 -40 0 -40 105 0 105 0 0 -40 0 -40 -150 0 -150 0 0
200 0 201 148 -3 147 -3 3 -37z m170 -120 l3 -158 94 0 95 0 0 -40 0 -40 -145
0 -145 0 0 201 0 200 48 -3 47 -3 3 -157z m502 152 c108 -32 163 -176 109
-288 -68 -140 -308 -140 -380 1 -51 98 -14 224 80 274 48 25 129 31 191 13z
m417 -1 c56 -12 84 -32 108 -79 21 -40 14 -113 -13 -143 -30 -34 -93 -57 -159
-57 l-63 0 0 -56 0 -55 -47 3 -48 3 -3 185 c-1 101 0 190 2 197 7 16 153 18
223 2z m273 -190 l0 -200 -47 3 -48 3 -3 185 c-1 101 0 190 2 197 3 8 23 13
51 13 l45 0 0 -201z m172 187 c7 -7 49 -58 93 -112 l80 -99 5 110 5 110 45 0
45 0 0 -195 0 -195 -40 -2 c-38 -2 -42 0 -88 60 -26 34 -68 85 -92 112 l-44
50 -1 -112 0 -113 -45 0 -45 0 0 200 0 200 34 0 c19 0 41 -6 48 -14z m639 3
c33 -11 79 -46 79 -59 0 -3 -13 -16 -30 -28 l-29 -22 -33 20 c-39 24 -88 26
-128 5 -43 -22 -60 -53 -60 -108 0 -43 5 -54 35 -84 31 -31 38 -34 87 -31 l53
3 3 63 3 62 44 0 45 0 0 -85 c0 -84 0 -85 -31 -100 -74 -39 -193 -35 -256 8
-43 29 -83 108 -83 164 0 82 43 151 115 184 46 21 135 25 186 8z m17384 -1150
c41 -45 114 -155 141 -212 10 -20 21 -37 25 -37 4 0 25 33 47 73 56 101 148
217 173 217 36 0 171 -50 252 -93 70 -37 77 -43 77 -71 -1 -56 -20 -170 -42
-244 -11 -40 -18 -75 -15 -79 4 -3 39 3 79 15 64 18 210 42 260 42 22 0 111
-179 135 -271 15 -59 15 -69 3 -85 -25 -29 -153 -121 -219 -155 -33 -18 -61
-35 -61 -38 0 -4 17 -15 38 -26 66 -34 166 -101 212 -142 l44 -40 -12 -52
c-16 -68 -65 -186 -102 -245 l-30 -46 -72 6 c-40 4 -115 17 -166 30 -51 13
-98 24 -106 24 -11 0 -9 -15 9 -73 23 -70 45 -199 45 -256 0 -26 -9 -33 -89
-74 -89 -46 -220 -91 -245 -85 -24 6 -112 117 -160 203 -27 47 -52 85 -55 85
-4 0 -23 -29 -41 -65 -40 -78 -154 -225 -174 -225 -46 0 -278 95 -323 132 -18
15 4 189 37 294 10 33 16 62 14 65 -2 3 -40 -4 -84 -17 -107 -31 -256 -50
-274 -34 -22 18 -94 173 -118 255 l-23 77 35 29 c62 52 154 116 208 144 28 15
52 31 52 36 0 4 -30 24 -68 43 -37 20 -102 64 -145 98 -77 61 -78 63 -72 97
10 53 68 199 102 256 l30 50 59 -2 c74 -2 173 -21 241 -44 29 -10 55 -14 58
-9 3 4 -2 27 -11 51 -22 64 -42 165 -46 238 l-3 65 57 34 c60 36 229 101 264
102 13 0 37 -17 59 -41z m-6549 -51 c-1 -24 -5 -48 -9 -55 -4 -6 -61 -30 -127
-53 -66 -24 -120 -46 -120 -50 0 -7 20 -15 180 -71 36 -13 68 -28 72 -33 11
-15 10 -84 -1 -90 -5 -3 -95 27 -200 67 l-191 72 0 55 0 55 188 72 c103 39
192 72 198 72 8 1 11 -15 10 -41z m396 18 c35 -14 120 -46 190 -73 l128 -48 0
-55 0 -55 -77 -29 c-43 -16 -129 -48 -190 -72 -62 -24 -115 -44 -118 -44 -3 0
-5 24 -5 53 l0 52 120 43 c65 23 124 42 130 42 19 0 10 18 -12 23 -13 3 -61
20 -108 37 -47 18 -95 35 -107 37 -20 5 -23 11 -23 59 0 30 2 54 5 54 3 0 33
-11 67 -24z m-15839 -198 l0 -43 -112 -42 c-62 -23 -115 -43 -117 -45 -2 -2
41 -19 94 -37 130 -45 139 -51 138 -95 -1 -19 -4 -38 -7 -41 -7 -6 -317 112
-337 128 -8 6 -12 26 -10 51 l4 41 169 66 c94 36 172 65 174 63 2 -2 4 -23 4
-46z m475 -20 l163 -62 -3 -49 -3 -48 -60 -24 c-313 -122 -285 -116 -285 -62
l0 45 78 30 c42 16 94 35 115 41 20 7 35 16 33 20 -2 3 -54 24 -115 46 l-111
40 0 42 c0 27 5 43 12 43 7 0 86 -28 176 -62z m8412 27 c0 -27 -4 -35 -19 -35
-14 0 -18 7 -16 28 3 40 4 42 20 42 10 0 15 -11 15 -35z m2750 -185 c0 -29 -4
-40 -15 -40 -8 0 -15 3 -16 8 0 4 -2 18 -4 32 -3 30 2 40 21 40 10 0 14 -12
14 -40z m-2750 -55 c0 -51 -3 -65 -15 -65 -17 0 -17 2 -19 77 -1 44 2 53 17
53 14 0 17 -10 17 -65z m-11340 -210 l0 -195 -410 0 -410 0 0 195 0 195 410 0
410 0 0 -195z m14090 -26 c0 -71 -2 -80 -17 -77 -14 3 -18 16 -21 71 -3 67 9
104 29 91 5 -3 9 -41 9 -85z m-2750 -34 c0 -48 -4 -65 -14 -65 -9 0 -15 18
-19 57 -6 61 -3 73 19 73 11 0 14 -15 14 -65z m8720 -217 l0 -148 -1365 0
-1365 0 0 143 c0 79 2 146 4 148 2 2 617 4 1365 4 l1361 0 0 -147z m-8720 -18
c0 -27 3 -30 31 -30 23 0 30 -4 27 -17 -2 -13 -14 -17 -46 -18 l-42 -1 0 48
c0 36 4 48 15 48 10 0 15 -10 15 -30z m2750 -15 c0 -25 -1 -45 -2 -45 -53 -8
-76 -9 -87 -1 -19 12 -5 31 25 31 18 0 24 5 24 23 0 27 7 37 27 37 9 0 13 -14
13 -45z m-2386 -30 c6 -17 -1 -18 -89 -15 -66 2 -70 4 -60 19 3 6 37 11 75 11
51 0 69 -4 74 -15z m306 -3 c0 -15 -10 -17 -75 -17 -65 0 -75 2 -75 18 0 15
10 17 75 17 65 0 75 -2 75 -18z m305 9 c9 -16 -16 -25 -75 -25 -31 0 -62 4
-68 8 -26 16 2 26 68 26 38 0 71 -4 75 -9z m305 -8 c0 -16 -10 -18 -75 -18
-65 0 -75 2 -75 17 0 16 10 18 75 18 65 0 75 -2 75 -17z m305 6 c10 -15 6 -17
-60 -19 -88 -3 -95 -2 -89 15 5 11 23 15 74 15 38 0 72 -5 75 -11z m305 -6 c0
-16 -10 -18 -75 -18 -65 0 -75 2 -75 18 0 15 10 17 75 17 65 0 75 -2 75 -17z
m303 3 c9 -22 0 -24 -66 -20 -74 6 -90 10 -82 24 10 16 142 13 148 -4z m307
-3 c0 -16 -10 -18 -75 -18 -65 0 -75 2 -75 17 0 16 10 18 75 18 65 0 75 -2 75
-17z m-11889 -95 c47 -14 104 -66 124 -115 21 -50 19 -126 -5 -173 -83 -163
-309 -158 -381 8 -73 167 84 334 262 280z m2907 -195 l2 -203 -1130 0 -1130 0
0 205 0 205 1128 -2 1127 -3 3 -202z m1462 -3 l0 -210 -570 0 -570 0 0 210 0
210 570 0 570 0 0 -210z m1820 0 l0 -210 -785 0 -785 0 0 210 0 210 785 0 785
0 0 -210z m390 -2595 l0 -2805 -45 0 -45 0 0 2805 0 2805 45 0 45 0 0 -2805z
m-8530 2545 l0 -200 -410 0 -410 0 0 200 0 200 410 0 410 0 0 -200z m21746
-92 c2 -16 -7 -18 -77 -18 -73 0 -79 2 -79 20 0 19 5 21 77 18 64 -3 77 -6 79
-20z m320 0 c2 -16 -7 -18 -77 -18 -73 0 -79 2 -79 20 0 19 5 21 77 18 64 -3
77 -6 79 -20z m320 0 c2 -16 -7 -18 -77 -18 -73 0 -79 2 -79 20 0 19 5 21 77
18 64 -3 77 -6 79 -20z m320 0 c2 -16 -7 -18 -77 -18 -73 0 -79 2 -79 20 0 19
5 21 77 18 64 -3 77 -6 79 -20z m320 0 c2 -16 -7 -18 -77 -18 -73 0 -79 2 -79
20 0 19 5 21 77 18 64 -3 77 -6 79 -20z m320 0 c2 -16 -7 -18 -77 -18 -73 0
-79 2 -79 20 0 19 5 21 77 18 64 -3 77 -6 79 -20z m324 2 c0 -18 -7 -20 -80
-20 -73 0 -80 2 -80 20 0 18 7 20 80 20 73 0 80 -2 80 -20z m-4530 -142 l0
-148 -905 0 -905 0 0 143 c0 79 2 146 4 148 2 2 410 4 905 4 l901 0 0 -147z
m920 -3 l0 -145 -328 0 -328 0 1 145 0 145 328 0 327 0 0 -145z m1395 108 c-1
-16 -3 -52 -3 -80 -2 -40 -6 -53 -17 -53 -12 0 -15 16 -15 80 0 71 2 80 19 80
14 0 18 -7 16 -27z m0 -320 c-1 -16 -3 -52 -3 -80 -2 -40 -6 -53 -17 -53 -12
0 -15 16 -15 80 0 71 2 80 19 80 14 0 18 -7 16 -27z m-19497 -49 c47 -19 100
-69 118 -113 31 -74 11 -178 -46 -232 -165 -158 -431 25 -341 234 44 102 168
153 269 111z m1688 -391 c-4 -10 -113 -13 -526 -13 l-520 0 0 205 0 205 523 2
522 3 3 -195 c1 -107 0 -200 -2 -207z m2104 197 l0 -210 -905 0 -905 0 0 210
0 210 905 0 905 0 0 -210z m2390 0 l0 -210 -1050 0 -1050 0 0 210 0 210 1050
0 1050 0 0 -210z m-8140 5 l0 -195 -410 0 -410 0 0 195 0 195 410 0 410 0 0
-195z m18130 -190 l0 -145 -400 0 -400 0 0 143 c0 79 2 146 4 148 2 2 182 3
400 1 l396 -2 0 -145z m1930 0 l0 -145 -845 0 -845 0 0 145 0 145 845 0 845 0
0 -145z m1395 108 c-1 -16 -3 -52 -3 -80 -2 -40 -6 -53 -17 -53 -12 0 -15 16
-15 80 0 71 2 80 19 80 14 0 18 -7 16 -27z m0 -320 c-1 -16 -3 -52 -3 -80 -2
-40 -6 -53 -17 -53 -12 0 -15 16 -15 80 0 71 2 80 19 80 14 0 18 -7 16 -27z
m-21455 -278 l0 -195 -410 0 -410 0 0 195 0 195 410 0 410 0 0 -195z m1943
134 c52 -14 112 -71 133 -124 53 -140 -45 -285 -193 -285 -66 0 -108 17 -150
60 -46 47 -67 108 -60 172 16 130 142 213 270 177z m4897 -199 l0 -210 -1315
0 -1315 0 0 210 0 210 1315 0 1315 0 0 -210z m1300 -6 c0 -193 -2 -215 -16
-210 -9 3 -240 6 -515 6 l-499 0 0 210 0 210 515 0 515 0 0 -216z m-4150 1 l0
-205 -695 0 -695 0 0 205 0 205 695 0 695 0 0 -205z m14790 -80 l0 -145 -725
0 -725 0 0 143 c0 79 2 146 4 148 2 2 329 3 725 1 l721 -2 0 -145z m1280 0 l0
-145 -532 2 -533 3 -1 135 c-1 74 1 138 3 143 2 4 242 7 534 7 l529 0 0 -145z
m1395 108 c-1 -16 -3 -52 -3 -80 -2 -40 -6 -53 -17 -53 -12 0 -15 16 -15 80 0
71 2 80 19 80 14 0 18 -7 16 -27z m0 -320 c-1 -16 -3 -52 -3 -80 -2 -40 -6
-53 -17 -53 -12 0 -15 16 -15 80 0 71 2 80 19 80 14 0 18 -7 16 -27z m-21455
-328 l0 -195 -410 0 -410 0 0 195 0 195 410 0 410 0 0 -195z m1946 80 c86 -25
144 -107 144 -202 -1 -118 -89 -204 -209 -204 -87 -1 -152 39 -187 115 -32 68
-31 119 4 186 30 59 57 84 118 105 50 18 70 18 130 0z m4362 5 c9 0 12 -48 12
-205 l0 -205 -855 0 -855 0 0 208 0 207 842 -3 c464 -1 849 -2 856 -2z m1830
-200 c-2 -116 -6 -210 -10 -210 -5 0 -357 0 -783 0 l-775 0 0 203 c0 112 3
207 7 210 3 4 357 7 785 7 l778 0 -2 -210z m-3790 -7 l2 -203 -875 0 -875 0 0
205 0 205 873 -2 872 -3 3 -202z m9102 177 c80 -5 226 -17 325 -26 l180 -16
73 -55 c106 -79 336 -275 413 -352 63 -63 169 -192 169 -205 0 -3 -24 -6 -52
-6 -122 0 -253 -35 -368 -97 -77 -42 -99 -60 -111 -90 -11 -29 7 -80 33 -94
71 -38 490 -61 653 -36 l100 16 45 -43 c108 -104 226 -181 304 -200 17 -4 56
-32 88 -62 33 -29 77 -68 100 -86 l40 -33 -5 -223 c-3 -123 -2 -301 3 -395 9
-164 34 -380 50 -421 4 -11 14 54 24 150 21 202 29 239 70 307 43 71 59 90
143 174 92 91 161 138 242 163 115 36 204 22 296 -48 141 -107 253 -386 242
-602 -15 -268 -170 -495 -420 -610 -203 -94 -451 -66 -581 66 l-45 45 -7 -28
c-40 -183 -139 -412 -259 -598 -146 -229 -395 -467 -636 -608 l-89 -52 0 -626
0 -626 168 -43 c404 -102 962 -276 1298 -405 1019 -392 1733 -803 2167 -1249
494 -509 994 -1575 1400 -2986 119 -414 279 -1052 266 -1064 -2 -3 -587 -8
-1299 -12 -712 -3 -1301 -9 -1308 -12 -8 -2 -44 -2 -80 2 -37 3 -773 7 -1637
8 -863 1 -1457 5 -1319 8 256 5 257 5 300 45 74 69 50 237 -41 292 -29 17 -93
18 -1309 23 l-1279 5 -65 185 c-35 102 -68 194 -73 205 -5 11 -13 34 -18 50
-5 17 -30 89 -56 160 -47 132 -98 276 -219 620 -37 105 -87 244 -111 310 -47
132 -129 364 -235 665 -37 107 -97 278 -134 380 -36 102 -92 257 -123 345 -71
201 -109 310 -161 455 -41 115 -62 173 -207 585 -42 121 -91 244 -109 274 -39
67 -120 142 -191 177 -54 26 -55 27 -35 41 56 39 503 246 735 340 467 189
1255 444 1746 563 l137 34 3 335 c3 185 3 467 1 628 l-4 292 -82 47 c-138 80
-246 164 -377 294 -189 188 -306 356 -409 588 -45 100 -120 324 -120 358 0 8
-28 -14 -62 -49 -70 -71 -129 -99 -247 -118 -76 -11 -199 0 -272 26 -283 100
-478 370 -479 662 0 245 131 520 292 608 47 27 62 30 138 30 73 0 94 -4 150
-30 139 -64 293 -220 367 -370 26 -53 32 -82 48 -244 21 -202 26 -206 50 -36
24 173 37 459 31 675 -7 215 -29 534 -46 658 -15 111 -12 193 11 299 33 152
85 283 167 416 38 62 68 83 212 142 106 43 333 84 580 104 148 12 647 13 820
1z m4470 -15 c0 -5 1 -72 3 -148 l2 -137 -297 0 -298 0 0 143 c0 79 2 146 4
148 10 9 586 4 586 -6z m2140 -140 l0 -145 -968 0 -968 0 1 145 0 145 968 0
967 0 0 -145z m1395 55 c0 -69 -2 -80 -17 -80 -16 0 -18 10 -18 80 0 70 2 80
18 80 16 0 18 -10 17 -80z m3805 -1160 l0 -1220 -25 0 -25 0 0 1220 0 1220 25
0 25 0 0 -1220z m-1870 1015 l0 -115 -630 0 -630 0 0 115 0 115 630 0 630 0 0
-115z m1510 5 l0 -110 -630 0 -630 0 0 110 0 110 630 0 630 0 0 -110z m-3241
-35 c1 -2 0 -8 -4 -14 -10 -17 -155 -14 -155 2 0 8 2 16 5 19 5 5 147 -2 154
-7z m320 -1 c1 -1 0 -7 -4 -13 -10 -17 -155 -14 -155 2 0 8 3 16 6 20 6 5 145
-2 153 -9z m-21979 -459 l0 -195 -410 0 -410 0 0 195 0 195 410 0 410 0 0
-195z m24068 78 l3 -113 -971 0 -970 0 0 115 0 115 968 -2 967 -3 3 -112z
m832 -3 l0 -110 -290 0 -290 0 0 110 0 110 290 0 290 0 0 -110z m-6392 -135
l3 -145 -591 0 -590 0 0 143 c0 79 2 146 4 148 2 2 267 3 588 2 l583 -3 3
-145z m1552 0 l0 -145 -680 0 -680 0 0 145 0 145 680 0 680 0 0 -145z m-18094
75 c69 -26 124 -112 124 -195 0 -223 -297 -291 -395 -90 -22 44 -27 65 -23
104 12 123 115 209 233 193 22 -3 49 -8 61 -12z m6174 -197 l0 -213 -1375 0
-1375 0 0 213 0 212 1375 0 1375 0 0 -212z m-4780 2 l0 -205 -380 0 -380 0 0
205 0 205 380 0 380 0 0 -205z m1788 -2 l-3 -208 -740 -3 c-407 -1 -750 0
-762 3 -23 5 -23 6 -23 210 l0 205 765 0 765 0 -2 -207z m17642 -158 l0 -115
-330 0 -330 0 0 115 0 115 330 0 330 0 0 -115z m928 3 l-3 -113 -327 -3 -328
-2 0 115 0 115 330 0 331 0 -3 -112z m1182 -3 l0 -115 -475 0 -475 0 0 115 0
115 475 0 475 0 0 -115z m-24900 -350 l0 -195 -410 0 -410 0 0 195 0 195 410
0 410 0 0 -195z m8140 -232 l0 -213 -1050 0 -1050 0 0 208 c0 115 2 211 4 213
2 2 475 4 1050 4 l1046 0 0 -212z m-6172 192 c76 -33 122 -103 122 -190 0
-188 -223 -282 -355 -151 -107 107 -72 290 66 345 37 15 126 13 167 -4z m2832
-190 l0 -205 -1100 0 -1100 0 0 205 0 205 1100 0 1100 0 0 -205z m950 -2 l0
-208 -340 0 -340 0 0 208 0 207 340 0 340 0 0 -207z m17585 92 l0 -110 -612
-3 -613 -2 0 115 0 115 613 -2 612 -3 0 -110z m1465 -5 l0 -110 -610 0 -610 0
0 110 0 110 610 0 610 0 0 -110z m-810 -400 l0 -110 -940 0 -940 0 0 110 0
110 940 0 940 0 0 -110z m810 0 l0 -110 -280 0 -280 0 0 110 0 110 280 0 280
0 0 -110z m-5230 -61 c0 -12 -55 -172 -153 -449 l-62 -175 -40 0 c-22 -1 -43
0 -47 2 -6 3 18 77 154 461 l61 172 44 0 c24 0 43 -5 43 -11z m-17589 -182
c66 -35 102 -93 107 -171 4 -56 1 -71 -24 -116 -40 -73 -96 -105 -185 -105
-55 0 -72 4 -107 28 -23 15 -54 46 -69 69 -24 35 -28 52 -28 107 1 94 43 163
120 197 49 22 135 17 186 -9z m3479 -182 l0 -205 -1430 0 -1430 0 0 205 0 205
1430 0 1430 0 0 -205z m1420 -5 l0 -210 -587 2 -588 3 -3 208 -2 207 590 0
590 0 0 -210z m1260 0 l0 -210 -515 0 -515 0 0 210 0 210 515 0 515 0 0 -210z
m10988 118 l-3 -41 -99 -36 c-55 -19 -95 -36 -90 -38 5 -2 50 -18 99 -36 l90
-32 3 -43 3 -42 -48 18 c-26 11 -94 37 -150 58 l-103 39 0 41 0 41 143 55 c78
31 146 56 150 57 5 0 7 -18 5 -41z m643 9 c46 -19 112 -44 147 -57 l62 -22 0
-43 0 -42 -102 -38 c-57 -21 -125 -46 -151 -56 l-48 -19 3 42 3 41 94 34 c52
18 96 35 98 37 2 2 -40 19 -94 38 l-98 35 -3 42 c-2 22 -1 41 1 41 3 0 42 -15
88 -33z m2979 -102 l0 -115 -320 0 -320 0 0 115 0 115 320 0 320 0 0 -115z
m900 -5 l0 -110 -317 2 -318 3 -3 108 -3 107 321 0 320 0 0 -110z m1150 0 l0
-110 -457 2 -458 3 -3 108 -3 107 461 0 460 0 0 -110z m-22820 -575 c69 -35
103 -88 108 -169 6 -97 -36 -168 -122 -207 -169 -77 -352 99 -280 269 48 116
181 164 294 107z m1490 -180 l0 -205 -435 0 -435 0 0 205 0 205 435 0 435 0 0
-205z m1330 -5 l0 -210 -535 0 -535 0 0 210 0 210 535 0 535 0 0 -210z m3340
0 l0 -210 -1535 0 -1535 0 0 210 0 210 1535 0 1535 0 0 -210z m-8148 38 c96
-55 248 -207 306 -306 47 -79 96 -198 88 -217 -2 -6 -26 -20 -53 -30 -26 -10
-79 -33 -117 -52 -79 -38 -86 -39 -86 -17 0 34 -63 163 -112 228 -58 77 -142
144 -235 188 l-62 29 82 109 c45 60 89 109 99 109 9 1 49 -18 90 -41z m7662
-805 c-88 -251 -147 -418 -150 -422 -4 -5 -67 -8 -76 -4 -6 3 29 112 136 417
31 88 56 161 56 163 0 2 20 3 45 3 l44 0 -55 -157z m-362 -98 c-3 -16 -24 -29
-94 -55 l-91 -33 94 -36 c98 -38 95 -35 90 -95 -1 -10 -37 0 -138 39 l-138 52
1 39 0 39 135 52 c115 44 135 49 140 35 3 -8 4 -25 1 -37z m653 4 l135 -52 0
-41 0 -41 -63 -23 c-34 -13 -91 -35 -126 -48 -73 -29 -91 -26 -88 13 2 25 11
31 90 62 49 18 85 37 80 41 -4 5 -43 20 -85 35 -43 15 -78 31 -78 35 0 4 -3
22 -6 39 -4 17 -4 31 0 31 3 0 67 -23 141 -51z m-5707 -802 c3 -32 0 -37 -17
-37 -18 0 -21 6 -21 41 0 33 3 40 18 37 12 -2 18 -14 20 -41z m-2628 -28 c0
-33 -3 -40 -17 -37 -12 2 -18 13 -19 33 -1 37 3 45 22 45 10 0 14 -12 14 -41z
m19940 -309 l0 -320 -200 0 -200 0 0 320 0 320 200 0 200 0 0 -320z m-17312
63 c-3 -65 -6 -78 -20 -81 -16 -3 -18 6 -18 77 0 75 2 81 20 81 19 0 21 -5 18
-77z m-2628 -19 c0 -64 -2 -75 -16 -72 -12 2 -18 17 -21 53 -5 61 3 95 22 95
12 0 15 -16 15 -76z m18780 -94 c0 -16 -7 -20 -30 -20 -27 0 -30 -3 -30 -30 0
-23 -4 -30 -20 -30 -17 0 -20 7 -20 50 l0 50 50 0 c43 0 50 -3 50 -20z m410
16 c0 -31 -15 -36 -105 -36 -70 0 -94 3 -98 14 -3 8 -3 17 0 20 7 7 203 8 203
2z m280 -16 c0 -17 -7 -20 -40 -20 -33 0 -40 3 -40 20 0 17 7 20 40 20 33 0
40 -3 40 -20z m-16840 -200 c0 -73 -2 -80 -20 -80 -18 0 -20 7 -20 80 0 73 2
80 20 80 18 0 20 -7 20 -80z m-2630 -15 c0 -57 -3 -75 -14 -75 -19 0 -26 22
-26 84 0 55 4 66 27 66 10 0 13 -19 13 -75z m18720 -90 c0 -68 -2 -75 -20 -75
-18 0 -20 7 -20 75 0 68 2 75 20 75 18 0 20 -7 20 -75z m-16106 -131 c13 -5
16 -22 16 -80 0 -67 -2 -74 -20 -74 -18 0 -20 7 -20 80 0 44 2 80 4 80 2 0 11
-3 20 -6z m-2614 -83 c0 -39 -4 -72 -9 -75 -18 -12 -32 24 -30 76 3 61 5 68
25 68 11 0 14 -16 14 -69z m18720 -87 c0 -66 -2 -75 -17 -72 -15 3 -19 16 -21
76 -3 67 -1 72 18 72 18 0 20 -6 20 -76z m-16090 -220 c0 -67 -2 -74 -20 -74
-18 0 -20 7 -20 74 0 50 4 76 13 79 23 8 27 -4 27 -79z m-2630 0 c0 -66 -2
-75 -17 -72 -15 3 -18 15 -19 68 -1 73 1 80 22 80 11 0 14 -16 14 -76z m18720
-79 c0 -68 -2 -75 -20 -75 -18 0 -20 7 -20 75 0 68 2 75 20 75 18 0 20 -7 20
-75z m-18720 -185 c0 -27 3 -30 31 -30 23 0 30 -4 27 -17 -2 -13 -14 -18 -46
-18 -23 0 -43 2 -43 5 -13 57 -7 90 16 90 10 0 15 -10 15 -30z m2628 -17 l-3
-48 -40 2 c-22 1 -43 2 -47 2 -5 1 -8 8 -8 16 0 10 10 15 30 15 27 0 30 3 30
30 0 24 4 30 21 30 18 0 20 -5 17 -47z m7568 31 c89 -20 200 -74 267 -129 94
-76 125 -135 215 -406 87 -262 141 -420 222 -649 29 -80 63 -179 77 -220 13
-41 49 -142 78 -225 56 -154 196 -548 245 -690 52 -149 138 -389 175 -490 20
-55 47 -131 60 -170 13 -38 38 -108 55 -155 31 -85 46 -126 113 -315 46 -130
126 -353 172 -480 20 -55 41 -111 45 -125 4 -14 45 -126 90 -250 45 -124 91
-250 101 -280 28 -85 48 -142 66 -182 14 -33 20 -37 57 -41 119 -11 -4945 -11
-5784 0 l-645 8 -47 23 c-69 34 -143 105 -172 165 -14 29 -32 86 -40 127 -8
41 -62 208 -119 370 -58 162 -144 405 -192 540 -47 135 -115 326 -150 425 -35
99 -112 315 -170 480 -58 165 -133 374 -165 465 -32 91 -88 251 -125 355 -37
105 -89 251 -115 325 -26 74 -78 221 -115 325 -36 105 -98 278 -137 385 -113
315 -123 367 -93 485 24 91 54 144 120 210 58 59 116 94 200 121 32 10 594 13
2842 13 2501 1 2809 -1 2869 -15z m-9808 -61 c-3 -15 -15 -18 -78 -18 -63 0
-75 3 -78 18 -3 15 6 17 78 17 72 0 81 -2 78 -17z m332 2 c0 -19 -33 -27 -100
-23 -43 2 -56 7 -58 21 -3 15 6 17 77 17 65 0 81 -3 81 -15z m330 1 c0 -8 -6
-16 -12 -18 -20 -7 -146 -4 -153 4 -18 18 13 28 86 28 61 0 79 -3 79 -14z
m330 0 c0 -20 -131 -34 -159 -17 -29 19 2 31 80 31 60 0 79 -3 79 -14z m330
-6 c0 -18 -7 -20 -79 -20 -76 0 -100 8 -86 30 3 6 42 10 86 10 72 0 79 -2 79
-20z m325 0 c0 -12 -17 -16 -82 -18 -78 -3 -83 -2 -83 18 0 20 5 21 83 18 65
-2 82 -6 82 -18z m332 3 c6 -18 -33 -25 -102 -18 -46 5 -65 11 -65 22 0 11 16
13 82 11 51 -2 83 -7 85 -15z m16351 -65 c-2 -57 -6 -73 -18 -73 -12 0 -16 16
-18 73 -3 67 -2 72 18 72 20 0 21 -5 18 -72z m2 -258 c0 -27 3 -30 30 -30 23
0 30 -5 30 -19 0 -17 -7 -19 -47 -18 l-48 2 -3 48 c-3 42 -1 47 17 47 17 0 21
-6 21 -30z m2010 -65 l0 -95 -535 0 -535 0 0 95 0 95 535 0 535 0 0 -95z
m1260 0 l0 -95 -525 0 -525 0 0 95 0 95 525 0 525 0 0 -95z m-2940 18 c0 -15
-10 -18 -65 -19 -57 -1 -65 2 -65 18 0 16 9 18 65 18 55 0 65 -3 65 -17z m270
0 c0 -15 -10 -18 -65 -18 -55 0 -65 3 -65 18 0 14 10 17 65 17 55 0 65 -3 65
-17z m220 -1 c0 -14 -8 -18 -40 -18 -32 -1 -40 3 -40 18 0 14 8 18 40 18 32 0
40 -4 40 -18z m860 -367 l0 -95 -370 0 -370 0 0 95 0 95 370 0 370 0 0 -95z
m1590 0 l0 -95 -680 0 -680 0 0 95 0 95 680 0 680 0 0 -95z m3630 -140 l0
-165 -350 0 -350 0 0 165 0 165 350 0 350 0 0 -165z m-5030 -210 l0 -95 -465
0 -465 0 0 95 0 95 465 0 465 0 0 -95z m410 0 l0 -95 -110 0 -110 0 0 95 0 95
110 0 110 0 0 -95z m990 0 l0 -95 -395 0 -395 0 0 95 0 95 395 0 395 0 0 -95z
m3630 -375 l0 -170 -350 0 -350 0 0 170 0 170 350 0 350 0 0 -170z m0 -580 l0
-170 -350 0 -350 0 0 170 0 170 350 0 350 0 0 -170z m-21434 -305 c11 -8 27
-28 34 -45 12 -28 11 -42 -6 -104 -16 -62 -19 -107 -19 -341 0 -236 2 -279 19
-343 22 -82 17 -113 -24 -143 -24 -17 -119 -18 -2060 -21 l-2035 -3 -3 512 -2
511 2037 -5 c1655 -4 2042 -8 2059 -18z m19532 -644 c19 -11 27 -83 13 -110
-9 -17 -21 -21 -56 -21 l-45 0 0 -578 c0 -544 -1 -583 -20 -656 -39 -154 -157
-295 -305 -366 -121 -58 -156 -62 -540 -58 -366 4 -349 2 -479 64 -100 47
-223 180 -268 289 -42 98 -42 103 -45 713 l-4 592 -39 0 c-29 0 -42 5 -50 19
-14 27 -13 94 2 109 9 9 226 12 918 12 498 0 911 -4 918 -9z m-19057 -612 c8
-4 24 -23 34 -42 18 -35 18 -37 -1 -99 -17 -56 -19 -95 -19 -353 0 -258 2
-297 19 -353 19 -62 19 -64 1 -99 -10 -19 -26 -38 -34 -42 -9 -5 -933 -11
-2053 -15 l-2038 -6 0 508 c0 280 3 512 8 516 10 10 4063 -4 4083 -15z"/>
<path d="M5640 16560 l0 -40 59 0 c56 0 91 15 91 39 0 23 -40 41 -93 41 l-57
0 0 -40z"/>
<path d="M5640 16400 l0 -40 69 0 c67 0 101 14 101 40 0 26 -34 40 -101 40
l-69 0 0 -40z"/>
<path d="M6220 16479 l0 -121 63 4 c75 4 112 27 128 81 19 60 -1 110 -54 136
-25 12 -63 21 -90 21 l-47 0 0 -121z"/>
<path d="M8174 16581 c-50 -30 -68 -105 -40 -160 44 -84 169 -83 210 3 20 42
20 56 1 104 -27 68 -107 92 -171 53z"/>
<path d="M8610 16536 l0 -66 58 0 c66 0 92 18 92 62 0 38 -33 61 -95 66 l-55
4 0 -66z"/>
<path d="M27263 14891 c-103 -36 -181 -122 -209 -230 -20 -82 -12 -151 27
-230 34 -68 76 -109 152 -148 44 -23 65 -27 137 -28 73 0 93 4 141 28 66 32
132 99 162 165 34 73 31 198 -6 273 -32 67 -100 132 -165 162 -65 28 -171 32
-239 8z"/>
<path d="M15158 11490 c-106 -18 -280 -95 -332 -147 -34 -33 -35 -81 -3 -111
53 -49 482 -80 672 -48 192 32 273 55 295 83 40 51 18 99 -58 134 -187 84
-402 118 -574 89z"/>
<path d="M15352 10515 c-88 -74 -113 -325 -46 -462 27 -57 74 -93 119 -93 41
0 100 66 122 138 27 86 24 249 -6 324 -42 107 -124 148 -189 93z"/>
<path d="M17180 10502 c-53 -57 -75 -133 -74 -257 2 -112 23 -186 71 -243 59
-69 144 -46 189 52 68 149 51 361 -36 448 -53 53 -99 53 -150 0z"/>
<path d="M16025 9513 c24 -173 194 -296 363 -263 75 14 120 37 173 90 72 72
118 220 69 220 -11 0 -19 -3 -18 -7 6 -21 -15 -95 -37 -136 -29 -51 -74 -89
-142 -119 -56 -25 -157 -22 -213 7 -82 41 -145 126 -157 210 -4 36 -10 45 -25
45 -18 0 -20 -5 -13 -47z"/>
<path d="M15611 9031 c-16 -11 -8 -53 26 -129 49 -111 148 -221 263 -292 168
-103 433 -136 653 -80 191 48 365 185 446 350 22 47 44 99 47 116 l6 31 -519
7 c-626 8 -905 7 -922 -3z"/>
<path d="M4810 2978 l0 -293 103 103 c56 56 106 102 110 102 4 0 45 -37 91
-82 46 -46 93 -92 105 -102 l21 -19 0 291 0 292 -215 0 -215 0 0 -292z"/>
<path d="M6130 1658 l0 -313 88 86 c48 46 100 96 115 109 l28 24 109 -109 110
-110 0 313 0 312 -225 0 -225 0 0 -312z"/>
</g>
</svg>
